<svg version="1.1" id="Layer_1" xmlns="http://www.w3.org/2000/svg" xmlns:xlink="http://www.w3.org/1999/xlink" x="0px" y="0px"
	 width="100%" viewBox="0 0 592 592" enable-background="new 0 0 592 592" xml:space="preserve">
<path fill="#000000" opacity="1.000000" stroke="none" 
	d="
M321.563171,263.503326 
	C332.915955,260.746216 339.137939,251.885818 346.489166,244.519791 
	C348.364716,242.640503 350.009369,240.530792 352.178864,238.047653 
	C348.459015,237.429443 346.495422,235.529617 347.952148,231.576645 
	C343.462006,233.558319 339.552490,235.390320 335.553345,236.999542 
	C333.801453,237.704483 331.915192,239.000732 329.970642,237.236969 
	C328.194824,235.626251 329.604736,233.844711 329.731934,231.810760 
	C326.598358,232.300385 324.992218,234.862045 322.720581,236.318771 
	C321.254761,237.258774 319.795868,239.257965 318.015808,237.285294 
	C316.433197,235.531464 318.340424,234.300995 319.381287,233.107590 
	C322.533203,229.493713 325.723907,225.913651 329.151276,222.035507 
	C326.083282,221.194412 323.673553,224.557632 320.213379,222.119934 
	C326.318634,217.813446 333.942200,217.357819 339.204926,212.434265 
	C344.267242,207.698166 349.662720,203.318161 355.383148,198.374390 
	C350.189667,196.425186 345.495789,197.726059 340.981323,197.129745 
	C335.102264,196.353180 333.128326,201.316605 330.092438,204.608994 
	C312.819855,223.340729 295.896881,242.377380 280.247131,262.506989 
	C276.397400,267.458771 272.190216,272.221619 271.468475,279.033508 
	C267.840698,278.318146 268.552490,275.880432 268.962433,273.951630 
	C269.594635,270.977142 271.395630,268.508514 273.122833,266.047882 
	C280.785156,255.131836 289.349182,244.926773 297.817963,234.644928 
	C298.495361,233.822510 299.731506,233.260910 299.483368,231.545120 
	C294.282990,233.425644 289.511047,236.188721 284.169373,237.391739 
	C280.648254,238.184723 277.759430,237.946243 277.342743,233.279099 
	C273.847778,234.171783 271.219482,238.065323 267.181122,235.843964 
	C268.263184,231.734909 277.468781,225.247604 281.299255,225.755829 
	C283.682007,226.071976 284.421234,227.250214 283.435760,229.578583 
	C282.833221,231.002228 281.016663,232.067169 282.051849,234.315765 
	C285.959503,234.494385 289.046906,231.528992 292.677734,231.032623 
	C303.808685,229.510880 309.830048,221.444412 316.242310,213.645218 
	C320.446960,208.531143 325.003052,203.706039 330.350067,197.683395 
	C314.857117,196.460571 300.667664,199.212616 285.113098,199.855103 
	C288.606934,195.671555 292.091949,196.090240 295.141937,195.788620 
	C306.579407,194.657532 318.067688,194.549347 329.551025,194.654343 
	C332.408020,194.680481 334.567383,193.861435 336.623138,191.770325 
	C340.471039,187.856232 344.615936,184.230911 348.696136,180.550720 
	C349.654449,179.686340 350.921051,178.594635 352.162964,179.958450 
	C353.402863,181.320038 352.162903,182.408859 351.254272,183.349411 
	C348.169983,186.541977 345.046539,189.696686 340.916779,193.907120 
	C349.754730,194.302261 357.531891,196.903534 364.854767,192.169525 
	C372.661621,187.122650 381.148987,183.894440 390.159576,181.938751 
	C392.028839,181.533035 394.368439,180.742584 395.655670,182.882629 
	C397.047455,185.196625 395.334045,187.109573 393.841949,188.587357 
	C391.525879,190.881226 388.902100,192.864349 386.304474,195.067627 
	C388.720612,196.871307 392.297211,195.399597 393.997803,198.566498 
	C392.596436,200.896851 391.043213,201.615356 388.337738,200.167648 
	C384.468964,198.097427 380.602020,198.145233 376.516357,200.409515 
	C367.187073,205.579880 357.436462,209.938858 347.409729,213.563568 
	C339.690887,216.353973 334.450745,221.944214 329.073730,227.975830 
	C331.918121,228.695312 334.289520,225.533646 336.799866,227.701584 
	C337.673462,230.642181 334.116486,231.387527 333.912018,234.205566 
	C341.112457,232.444382 347.092957,226.866531 354.683380,227.791840 
	C356.102325,229.684586 353.888580,230.682327 354.015350,232.081345 
	C358.344757,232.835510 360.239105,226.814438 365.631775,228.653442 
	C358.841827,238.801010 349.812378,246.317383 341.194489,255.701645 
	C348.601044,254.396500 354.735474,253.190872 360.913483,252.281204 
	C363.854279,251.848175 366.883911,251.812485 369.861969,251.917801 
	C371.565460,251.978058 374.108795,252.078964 373.737000,254.628662 
	C373.392456,256.991577 370.806641,257.795349 368.983398,257.094666 
	C361.097626,254.064011 353.644165,257.066711 346.124268,258.420105 
	C339.149902,259.675293 332.995514,262.626678 327.905975,267.956787 
	C310.240173,286.457581 289.690277,301.051666 266.688232,312.213043 
	C265.640533,312.721466 264.624329,313.312439 263.539703,313.723022 
	C261.797150,314.382660 259.874969,315.010742 258.548981,313.137909 
	C257.300476,311.374634 258.668121,309.913422 259.765625,308.733521 
	C277.376465,289.800446 296.683228,273.160278 321.563171,263.503326 
M280.295776,292.788513 
	C275.270325,297.656799 270.244904,302.525085 265.219452,307.393341 
	C265.653992,307.878143 266.088531,308.362946 266.523071,308.847778 
	C288.360016,298.419220 307.463531,284.196625 324.065979,266.470886 
	C307.691681,271.862671 293.877686,281.451569 280.295776,292.788513 
M377.191803,195.630829 
	C383.304535,194.491104 387.286346,190.397415 391.940704,185.854889 
	C385.410736,185.270874 372.959503,190.093964 368.589081,194.434509 
	C371.128693,195.437271 373.755066,195.554123 377.191803,195.630829 
M350.274567,208.714279 
	C357.899841,206.111755 365.307068,203.034241 372.769165,198.810822 
	C363.806549,197.017944 352.270203,201.986435 348.472107,208.871735 
	C348.744781,208.934082 349.015289,209.026947 349.290985,209.046616 
	C349.441864,209.057373 349.601532,208.944366 350.274567,208.714279 
z"/>
<path fill="#000000" opacity="1.000000" stroke="none" 
	d="
M413.897156,111.015610 
	C466.469238,141.378860 500.877686,185.462860 517.295288,243.554764 
	C517.340515,243.714752 517.378845,243.878265 517.401733,244.042725 
	C517.654541,245.856583 519.340637,248.214050 516.315857,249.025467 
	C513.650879,249.740356 513.567383,247.089081 513.085022,245.521912 
	C510.834442,238.209381 508.760834,230.844986 505.869324,223.742279 
	C478.647675,156.874710 429.879211,114.046890 360.587067,94.870476 
	C327.666595,85.759827 294.248657,85.943214 260.936462,93.738930 
	C258.900055,94.215485 256.834381,94.567009 254.655060,95.002106 
	C253.802353,89.965118 257.325745,89.714256 260.046021,89.086403 
	C280.759888,84.305595 301.779083,82.402321 322.954681,84.019760 
	C355.024414,86.469315 385.401794,95.024910 413.897156,111.015610 
z"/>
<path fill="#000000" opacity="1.000000" stroke="none" 
	d="
M123.139618,402.895630 
	C178.917465,493.449066 259.611115,525.471436 362.651947,506.521332 
	C363.486877,509.779541 360.898193,510.432098 358.513092,510.996246 
	C347.502380,513.600525 336.336823,515.350830 325.068939,516.243286 
	C290.268829,518.999329 256.619080,513.718628 224.662292,499.811737 
	C161.478699,472.315735 119.953506,425.319885 100.338600,359.177887 
	C99.703262,357.035522 97.055481,353.422119 100.704391,352.361084 
	C104.473320,351.265137 103.928993,355.726593 104.550552,357.894348 
	C109.021301,373.486481 115.167320,388.363190 123.139618,402.895630 
z"/>
<path fill="#000000" opacity="1.000000" stroke="none" 
	d="
M226.327271,198.316986 
	C210.098373,218.077637 196.089233,238.886078 184.607208,261.359467 
	C182.614136,265.260406 181.676971,269.508636 181.250275,273.820831 
	C180.674927,279.635406 182.950943,281.221161 188.339905,278.742828 
	C199.881821,273.434845 210.378647,266.360260 220.807190,259.191406 
	C223.962219,257.022522 227.012314,254.701523 230.134125,252.483521 
	C231.701126,251.370209 233.266602,250.172485 235.394409,250.239716 
	C235.665268,252.631348 233.931824,253.060959 232.824448,253.872116 
	C220.733566,262.728790 208.415649,271.250275 195.460785,278.812744 
	C193.881088,279.734894 192.282944,280.672882 190.590530,281.344391 
	C187.293365,282.652649 183.969650,285.429077 180.324341,282.751434 
	C176.449677,279.905304 177.458725,275.504333 177.923294,271.639404 
	C178.917480,263.368652 182.709122,256.004089 186.938171,249.075729 
	C200.558121,226.762482 214.233261,204.421906 233.425400,186.233887 
	C244.051956,176.163300 254.610947,165.985001 267.297546,158.384964 
	C272.680878,155.159988 278.314453,152.851730 284.649261,152.722260 
	C290.150452,152.609818 291.964325,154.990250 290.561340,160.206467 
	C288.737061,166.989151 285.768951,171.941895 281.686340,174.848404 
	C279.548065,172.881195 280.574768,170.986862 281.885101,169.215973 
	C283.471832,167.071503 285.160339,165.001190 286.096924,162.463531 
	C287.758087,157.962555 286.533783,156.162628 281.827576,156.184662 
	C277.493713,156.204956 273.770844,158.074371 270.154449,160.177826 
	C257.950500,167.276154 247.760025,176.852692 237.766266,186.654236 
	C233.964050,190.383331 230.298843,194.252151 226.327271,198.316986 
z"/>
<path fill="#000000" opacity="1.000000" stroke="none" 
	d="
M337.658173,342.832703 
	C340.109772,349.108063 337.755157,352.913147 331.546997,353.346283 
	C323.695618,353.894043 323.604523,353.844177 323.154877,346.007385 
	C323.012360,343.522858 322.888611,341.006897 323.120209,338.539490 
	C323.366241,335.918488 321.674225,332.099854 325.069427,331.056427 
	C328.403381,330.031799 332.415253,329.729340 335.622894,332.145386 
	C338.491394,334.306000 338.284058,337.240509 336.952423,340.235016 
	C336.561646,341.113739 336.998749,341.836121 337.658173,342.832703 
M328.892609,345.365204 
	C328.050842,347.465179 328.783295,348.582550 331.021515,348.462921 
	C332.034149,348.408752 333.122070,347.685089 332.954163,346.615967 
	C332.622437,344.503418 331.157776,344.129883 328.892609,345.365204 
z"/>
<path fill="#000000" opacity="1.000000" stroke="none" 
	d="
M249.917770,349.923767 
	C242.920639,355.025055 235.598099,354.068085 231.927979,347.883331 
	C228.567841,342.220978 230.896835,334.671539 236.918671,331.705780 
	C241.475189,329.461731 247.148529,330.696136 250.506012,334.662140 
	C254.321671,339.169342 254.219696,344.036530 249.917770,349.923767 
M236.485199,339.383911 
	C235.643646,342.663635 235.760696,345.636749 239.032562,347.663879 
	C241.139664,348.969391 243.108505,348.721954 245.008820,347.253052 
	C248.095581,344.867035 248.545959,340.327911 245.966064,337.607330 
	C243.084076,334.568176 240.623077,334.861053 236.485199,339.383911 
z"/>
<path fill="#000000" opacity="1.000000" stroke="none" 
	d="
M413.035339,338.717163 
	C415.152893,333.278229 418.839081,330.598114 424.281067,330.704254 
	C429.054565,330.797333 432.523102,333.143829 434.405884,337.548553 
	C436.284515,341.943665 435.518677,346.050507 432.461273,349.658691 
	C429.439331,353.225098 424.158356,354.344452 419.682343,352.530151 
	C414.244659,350.325989 412.372803,346.618774 413.035339,338.717163 
M418.187103,342.413727 
	C419.655518,347.822723 422.769226,349.826080 426.427826,347.675201 
	C429.173645,346.060974 430.234528,343.597198 429.535004,340.531433 
	C428.891937,337.713165 427.056763,335.539551 424.150513,335.567749 
	C420.514709,335.603088 418.684906,338.154144 418.187103,342.413727 
z"/>
<path fill="#000000" opacity="1.000000" stroke="none" 
	d="
M383.960785,334.033813 
	C388.091583,339.982147 388.278870,344.534210 384.835480,348.954041 
	C381.800995,352.849030 376.869415,354.461975 372.323334,352.837219 
	C368.129456,351.338379 365.152039,348.659210 364.665649,343.911041 
	C364.168579,339.059113 365.386383,334.946075 369.861694,332.371277 
	C374.768860,329.547974 379.403992,330.053375 383.960785,334.033813 
M378.254517,347.741516 
	C381.798279,345.246063 382.693268,342.004456 380.370422,338.343201 
	C378.867645,335.974609 376.560028,334.534576 373.616852,336.080170 
	C370.350739,337.795349 369.407227,340.746613 370.426300,344.058044 
	C371.468475,347.444427 373.797943,349.275970 378.254517,347.741516 
z"/>
<path fill="#000000" opacity="1.000000" stroke="none" 
	d="
M189.026367,352.475281 
	C182.921799,348.730133 180.876144,344.054443 182.646606,338.600647 
	C184.320251,333.445099 189.097031,330.256561 194.495300,330.691559 
	C199.751770,331.115143 203.876053,335.119507 204.720139,340.619049 
	C205.987305,348.875183 198.551743,354.703339 189.026367,352.475281 
M187.929306,344.478638 
	C191.272263,348.953125 194.318481,349.807220 197.266510,346.894379 
	C199.424606,344.761993 200.460312,342.155762 198.811783,339.222198 
	C197.425308,336.754974 195.352310,334.750885 192.377670,335.692322 
	C188.627228,336.879242 186.759277,339.667603 187.929306,344.478638 
z"/>
<path fill="#000000" opacity="1.000000" stroke="none" 
	d="
M477.722229,349.240570 
	C478.637817,350.441376 479.460266,351.324554 478.997955,352.833099 
	C472.065002,355.461853 471.512024,348.167633 467.935333,345.476746 
	C466.660217,346.772308 467.383087,348.340271 467.223846,349.728546 
	C467.025696,351.456360 466.938202,353.147003 464.604950,353.209686 
	C461.966736,353.280548 461.776123,351.424500 461.723663,349.497284 
	C461.592590,344.679199 461.448212,339.861084 461.376007,335.041962 
	C461.345734,333.023224 461.268066,330.886322 464.217896,330.759827 
	C467.230560,330.630585 467.173615,332.745636 467.272461,334.795135 
	C467.295959,335.282623 467.423187,335.765137 467.577484,336.705841 
	C471.403687,334.721405 473.107666,328.172729 479.701874,331.811890 
	C473.741425,336.867950 469.563904,342.413788 477.722229,349.240570 
z"/>
<path fill="#000000" opacity="1.000000" stroke="none" 
	d="
M289.423096,333.016205 
	C291.470764,330.427216 293.787811,330.285980 296.599976,331.180237 
	C296.650543,334.286346 293.947968,335.592590 292.321014,337.401428 
	C290.074158,339.899445 289.558777,341.837738 291.972534,344.626007 
	C293.958832,346.920471 296.194702,349.277283 296.888031,352.672180 
	C289.822327,355.362274 289.549225,347.940735 285.839447,345.704285 
	C284.473999,346.633972 285.272522,348.089539 285.103607,349.281708 
	C284.848022,351.085480 285.060150,353.152557 282.400421,353.206238 
	C279.747803,353.259796 279.658356,351.292175 279.640106,349.414612 
	C279.593292,344.602936 279.550934,339.789978 279.620209,334.979126 
	C279.645081,333.253387 279.246521,331.083588 281.967529,330.826569 
	C284.911591,330.548492 285.044373,332.648041 285.205597,334.717499 
	C285.243622,335.205078 285.353485,335.687073 285.445770,336.269379 
	C287.423370,336.095581 287.914246,334.197083 289.423096,333.016205 
z"/>
<path fill="#000000" opacity="1.000000" stroke="none" 
	d="
M149.089676,330.668701 
	C150.969681,330.921417 152.462997,331.043579 153.864395,331.468689 
	C155.494461,331.963196 156.362045,333.047638 155.614426,334.887177 
	C154.997391,336.405487 153.897202,336.968811 152.455185,336.247681 
	C149.305267,334.672516 146.934647,335.767090 145.194397,338.407043 
	C143.608307,340.813141 143.567398,343.579956 145.148743,345.933105 
	C146.916183,348.563263 149.573380,349.263794 152.602173,347.990631 
	C154.325073,347.266418 155.572098,347.739929 156.013382,349.589661 
	C156.559402,351.878296 154.722321,352.421204 153.185333,352.945831 
	C147.391159,354.923737 140.361694,351.200165 138.925980,345.468109 
	C137.021088,337.862732 140.884216,331.992065 149.089676,330.668701 
z"/>
<path fill="#000000" opacity="1.000000" stroke="none" 
	d="
M396.342285,244.459930 
	C394.329651,245.943069 392.587219,247.803146 390.307770,246.702988 
	C387.615601,245.403656 386.912659,243.067535 388.834198,240.541595 
	C390.361816,238.533478 392.512604,237.120956 394.797028,236.156113 
	C397.034485,235.211075 397.683899,233.736099 397.545135,231.488098 
	C397.465546,230.198914 397.440369,228.732819 397.968231,227.620453 
	C398.756042,225.960464 400.256836,224.244354 402.257904,225.363388 
	C404.141144,226.416550 402.617523,227.927856 401.856842,229.147354 
	C401.382874,229.907181 401.316315,230.684235 401.863892,231.825562 
	C407.444000,231.918549 412.500488,227.701309 418.759033,229.547134 
	C410.457764,233.156189 400.866333,234.848801 396.342285,244.459930 
z"/>
<path fill="#000000" opacity="1.000000" stroke="none" 
	d="
M258.356354,232.314545 
	C261.310333,230.649506 261.304871,227.190216 263.706055,225.253387 
	C267.164093,227.161911 266.279114,230.269165 264.279602,231.596344 
	C256.533997,236.737396 249.715576,243.179825 241.533081,247.675064 
	C240.810440,248.072067 240.033691,248.415573 238.569519,247.268967 
	C244.627579,241.606857 251.723923,237.531754 258.356354,232.314545 
z"/>
<path fill="#000000" opacity="1.000000" stroke="none" 
	d="
M411.499115,199.621872 
	C413.487518,198.636398 414.591309,199.395203 414.179016,201.058792 
	C413.254242,204.790359 411.230438,207.773041 406.693054,209.548935 
	C407.228088,205.223480 409.800934,202.792160 411.499115,199.621872 
z"/>
</svg>